<svg xmlns="http://www.w3.org/2000/svg" viewBox="0 0 426.075 134.94" height="134.94" width="426.075" xml:space="preserve" id="svg2" version="1.1"><defs id="defs6"><clipPath id="clipPath26" clipPathUnits="userSpaceOnUse"><path id="path24" d="M0 101.205h319.556V0H0z"/></clipPath></defs><g transform="matrix(1.33333 0 0 -1.33333 0 134.94)" id="g10"><path id="path12" d="M0 54.535h319.556v2.461H0z" fill="#f6bd16"/><g transform="translate(1.282 101.205)" id="g14"><path id="path16" d="M0 0v-27.68h4.322v12.798h14.104v3.921H4.322v7.04h15.132V0z" fill="#026937"/></g><path id="path18" d="M26.606 73.526h4.304v24.003h-4.304z" fill="#026937"/><g id="g20"><g clip-path="url(#clipPath26)" id="g22"><g transform="translate(43.826 93.626)" id="g28"><path id="path30" d="M0 0v-6.876h3.966c.68 0 1.289.023 1.813.065.52.045 1.062.139 1.623.283.557.137 1.02.336 1.374.581.359.248.655.592.89 1.03.232.437.354.957.354 1.556C10.02-1.119 8.27 0 4.771 0zm14.509-2.975c0-.764-.093-1.496-.28-2.186a7.434 7.434 0 0 0-.887-2.003c-.407-.642-.961-1.217-1.659-1.722-.704-.505-1.533-.901-2.486-1.185l7.331-10.03h-5.606l-6.803 9.307H0v-9.307h-4.303V3.903H6.035c.509 0 .98-.014 1.409-.041a15.27 15.27 0 0 0 1.555-.205 8.88 8.88 0 0 0 1.624-.43 7.097 7.097 0 0 0 1.467-.796c.51-.349.929-.757 1.267-1.225.336-.468.611-1.058.828-1.776.216-.712.324-1.514.324-2.405" fill="#026937"/></g><g transform="translate(75.033 87.569)" id="g32"><path id="path34" d="M0 0c5.184-1.244 7.879-3.077 7.879-7.128 0-4.562-3.604-7.263-8.75-7.263-3.742 0-7.276 1.278-10.217 3.872l2.586 3.044c2.347-2.004 4.689-3.145 7.738-3.145 2.661 0 4.336 1.211 4.336 3.081 0 1.762-.977 2.694-5.529 3.735-5.211 1.247-8.152 2.765-8.152 7.262 0 4.221 3.498 7.062 8.364 7.062 3.569 0 6.403-1.076 8.89-3.047l-2.31-3.216C2.627 5.882.426 6.746-1.813 6.746c-2.521 0-3.99-1.279-3.99-2.904C-5.803 1.937-4.684 1.109 0 0" fill="#026937"/></g><g transform="translate(86.402 97.529)" id="g36"><path id="path38" d="M0 0h21.938v-3.918h-8.817v-20.085H8.816v20.085H0z" fill="#026937"/></g><g transform="translate(123.732 101.205)" id="g40"><path id="path42" d="M0 0h4.75l14.973-21.485V0h4.305v-27.679h-4.797L4.308-6.167v-21.512H0z" fill="#026937"/></g><g transform="translate(167.697 83.712)" id="g44"><path id="path46" d="M0 0l-3.455 8.899L-6.916 0zm-5.67 13.817h4.717l9.599-24.004H4.221L1.506-3.905h-9.91l-2.72-6.282h-4.167z" fill="#026937"/></g><g transform="translate(176.517 97.529)" id="g48"><path id="path50" d="M0 0h21.941v-3.918h-8.814v-20.085h-4.31v20.085H0z" fill="#026937"/></g><path id="path52" d="M202.923 73.526h4.306v24.003h-4.306z" fill="#026937"/><g transform="translate(228.185 93.584)" id="g54"><path id="path56" d="M0 0c-.796.197-1.6.295-2.421.295A9.665 9.665 0 0 1-4.811 0a8.372 8.372 0 0 1-2.232-.928 7.527 7.527 0 0 1-1.869-1.567c-.537-.618-.963-1.379-1.284-2.287-.318-.906-.476-1.904-.476-2.996 0-2.601.812-4.692 2.443-6.269 1.625-1.577 3.659-2.365 6.096-2.365 1.014 0 2.002.165 2.947.49a8.897 8.897 0 0 1 2.643 1.452c.808.644 1.459 1.515 1.949 2.619.492 1.104.737 2.36.737 3.767 0 1.149-.174 2.2-.519 3.151-.336.953-.79 1.743-1.354 2.373A8.118 8.118 0 0 1 2.303-.956 8.477 8.477 0 0 1 0 0m-2.248 4.198c2.473 0 4.668-.478 6.593-1.434a10.884 10.884 0 0 0 4.55-4.182c1.101-1.832 1.651-3.957 1.651-6.375 0-2.455-.536-4.634-1.621-6.533-1.082-1.894-2.603-3.37-4.562-4.419-1.959-1.047-4.211-1.568-6.748-1.568-1.674 0-3.265.259-4.768.768a12.68 12.68 0 0 0-4.042 2.244c-1.192.989-2.135 2.271-2.839 3.85-.698 1.573-1.048 3.349-1.048 5.334 0 2.467.547 4.638 1.643 6.513 1.088 1.874 2.605 3.309 4.543 4.308 1.935.996 4.151 1.494 6.648 1.494" fill="#026937"/></g><g transform="translate(244.16 97.529)" id="g58"><path id="path60" d="M0 0h4.749l13.554-18.446V0h4.303v-24.003h-4.799L4.309-5.524v-18.479H0z" fill="#026937"/></g><g transform="translate(286.908 83.712)" id="g62"><path id="path64" d="M0 0l-3.447 8.899L-6.92 0zm-5.668 13.817h4.712l9.602-24.004H4.221L1.506-3.905h-9.914l-2.713-6.282h-4.171z" fill="#026937"/></g><g transform="translate(300.676 97.529)" id="g66"><path id="path68" d="M0 0h4.307v-20.103h12.302v-3.9H0z" fill="#026937"/></g><g transform="translate(3.31 35.77)" id="g70"><path id="path72" d="M0 0v-3.064h6.062v-2.09H0v-5.543h-2.275V2.086h8.879V0z" fill="#727d7d"/></g><path id="path74" d="M15.541 25.072h2.268v12.783h-2.268z" fill="#727d7d"/><g transform="translate(24.69 37.855)" id="g76"><path id="path78" d="M0 0h2.501l7.134-9.82V0H11.9v-12.783H9.374L2.266-2.936v-9.847H0z" fill="#727d7d"/></g><g transform="translate(49.01 30.498)" id="g80"><path id="path82" d="M0 0l-1.818 4.744L-3.645 0zm-2.987 7.357h2.483L4.551-5.426h-2.33l-1.43 3.35h-5.219l-1.429-3.35h-2.196z" fill="#727d7d"/></g><g transform="translate(58.653 37.855)" id="g84"><path id="path86" d="M0 0h2.501l7.135-9.82V0h2.265v-12.783H9.374L2.268-2.936v-9.847H0z" fill="#727d7d"/></g><g transform="translate(82.994 37.947)" id="g88"><path id="path90" d="M0 0c1.342 0 2.619-.234 3.824-.713l.332-.133-.711-1.941-.34.117c-1.164.387-2.215.586-3.157.586a5.737 5.737 0 0 1-2.066-.367c-.632-.244-1.157-.567-1.572-.975a4.384 4.384 0 0 1-.972-1.406 4.037 4.037 0 0 1-.348-1.654c0-.592.125-1.159.373-1.694a4.356 4.356 0 0 1 1.044-1.416c.447-.404 1.008-.728 1.687-.959a6.605 6.605 0 0 1 2.22-.357c.985 0 1.968.174 2.952.521l.333.118.737-1.801-.33-.143a10.408 10.408 0 0 0-4.123-.836c-1.121 0-2.139.17-3.053.514-.914.34-1.668.807-2.262 1.404a6.311 6.311 0 0 0-1.373 2.084 6.73 6.73 0 0 0-.48 2.553c0 .928.165 1.783.494 2.576a5.962 5.962 0 0 0 1.412 2.059C-4.768-1.283-4-.826-3.076-.492-2.152-.164-1.127 0 0 0" fill="#727d7d"/></g><path id="path92" d="M91.678 25.072h2.269v12.783h-2.269z" fill="#727d7d"/><g transform="translate(106.572 30.498)" id="g94"><path id="path96" d="M0 0l-1.816 4.744L-3.643 0zm-2.986 7.357h2.484L4.552-5.426H2.223l-1.43 3.35h-5.219l-1.43-3.35h-2.196z" fill="#727d7d"/></g><g transform="translate(115.703 37.855)" id="g98"><path id="path100" d="M0 0h2.266v-10.703h6.478v-2.08H0z" fill="#727d7d"/></g><g transform="translate(136.572 37.855)" id="g102"><path id="path104" d="M0 0h2.266v-10.703h6.478v-2.08H0z" fill="#727d7d"/></g><g transform="translate(153.364 35.77)" id="g106"><path id="path108" d="M0 0v-3.643a20.03 20.03 0 0 1 2.326-.021c.296.012.614.043.954.086.338.041.623.105.854.195.232.092.445.203.642.344.2.137.346.314.446.531.099.215.149.469.149.756 0 .256-.042.484-.127.678-.084.193-.21.357-.382.478a2.842 2.842 0 0 1-.558.309 2.937 2.937 0 0 1-.727.185c-.286.038-.556.067-.814.082-.26.014-.559.02-.9.02zm-2.267 2.086h4.589c.262 0 .488 0 .675-.002.184-.004.432-.014.74-.041.309-.023.576-.057.801-.106.225-.042.483-.107.775-.189.29-.086.538-.186.747-.301.205-.117.418-.271.638-.459.217-.185.395-.39.528-.621.13-.234.24-.506.327-.824.086-.318.13-.672.13-1.055 0-.539-.07-1.025-.211-1.455a3.615 3.615 0 0 0-.55-1.09 3.038 3.038 0 0 0-.862-.757 5.144 5.144 0 0 0-1.063-.502A6.912 6.912 0 0 0 3.751-5.6c-.475-.07-.905-.113-1.3-.136-.391-.02-.841-.03-1.346-.03A26.9 26.9 0 0 0 0-5.729v-4.968h-2.267V2.086" fill="#727d7d"/></g><g transform="translate(281.474 20.06)" id="g110"><path id="path112" d="M0 0c0-7.898 8.028-13.844 7.764-14.248C7.503-14.652-4.142-8.627-4.142.66v6.721h-4.17V1.336c0-14.051 17.289-21.397 17.289-21.397s17.284 7.346 17.284 21.397v6.045H0zm11.866 30.835h-1.148v4.077h-3.94v-4.077h-.705c-14.094 0-19.035-8.278-19.035-12.153 0-6.637 5.272-9.43 5.272-9.43h33.325s5.262 2.793 5.262 9.43c0 3.875-4.926 12.153-19.031 12.153M1.545 18.229c.308-.215.308-.557 0-.772l-2.107-1.439c-.305-.204-.816-.204-1.115 0l-2.106 1.439c-.312.215-.312.557 0 .772l2.106 1.427c.299.201.81.201 1.115 0zm4.852-4.09L4.29 12.705c-.303-.223-.812-.223-1.114 0l-2.113 1.434c-.295.218-.295.558 0 .769l2.113 1.436c.302.213.811.213 1.114 0l2.107-1.436c.314-.211.314-.551 0-.769m-9.711 0l-2.107-1.428c-.303-.219-.812-.219-1.115 0l-2.112 1.428c-.295.215-.295.568 0 .773l2.112 1.428c.303.207.812.207 1.115 0l2.107-1.428c.314-.205.314-.558 0-.773m0 6.625l-2.107-1.428c-.303-.221-.812-.221-1.115 0l-2.112 1.428c-.295.215-.295.568 0 .773l2.112 1.43c.303.205.812.205 1.115 0l2.107-1.43c.314-.205.314-.558 0-.773m4.859 3.322l-2.107-1.428c-.303-.221-.814-.221-1.115 0l-2.111 1.428c-.299.215-.299.568 0 .773l2.111 1.43c.301.205.812.205 1.115 0l2.107-1.43c.315-.205.315-.558 0-.773m4.852-3.322L4.29 19.336c-.303-.221-.812-.221-1.114 0l-2.113 1.428c-.295.215-.295.568 0 .773l2.113 1.43c.302.205.811.205 1.114 0l2.107-1.43c.314-.205.314-.558 0-.773" fill="#f6bd16"/></g></g></g></g></svg>